<?xml version="1.0" standalone="no"?>
<!DOCTYPE svg PUBLIC "-//W3C//DTD SVG 20010904//EN"
 "http://www.w3.org/TR/2001/REC-SVG-20010904/DTD/svg10.dtd">
<svg version="1.0" xmlns="http://www.w3.org/2000/svg"
 width="600.000000pt" height="196.000000pt" viewBox="0 0 600.000000 196.000000"
 preserveAspectRatio="xMidYMid meet">
<g transform="translate(0.000000,196.000000) scale(0.100000,-0.100000)"
fill="#000000" stroke="none">
<path d="M518 1761 c-134 -43 -159 -219 -42 -292 135 -83 296 64 227 208 -30
64 -120 104 -185 84z m109 -47 c91 -59 77 -187 -25 -231 -43 -18 -98 -4 -137
37 -24 25 -29 39 -29 84 -1 44 4 59 24 81 50 54 113 65 167 29z"/>
<path d="M1600 1748 c-61 -31 -90 -77 -90 -143 0 -169 226 -221 300 -69 24 48
25 82 6 128 -17 41 -50 73 -95 92 -46 19 -69 18 -121 -8z m140 -37 c125 -87
22 -282 -119 -225 -75 30 -104 120 -60 190 11 19 21 34 22 34 1 0 20 7 42 14
45 16 78 12 115 -13z"/>
<path d="M2813 1759 c-71 -21 -122 -108 -107 -186 9 -49 66 -110 115 -123 101
-28 199 49 199 156 0 65 -29 111 -90 142 -47 24 -67 25 -117 11z m109 -41 c37
-14 68 -66 68 -113 0 -100 -120 -165 -199 -108 -64 47 -75 133 -25 193 40 47
86 55 156 28z"/>
<path d="M4062 1757 c-73 -23 -122 -107 -108 -182 10 -52 70 -113 121 -125 74
-17 154 21 181 86 36 85 5 171 -76 212 -48 24 -67 26 -118 9z m125 -46 c51
-38 68 -113 38 -170 -8 -17 -34 -38 -59 -51 -38 -18 -50 -20 -85 -10 -72 19
-118 105 -91 169 33 80 131 111 197 62z"/>
<path d="M5299 1747 c-76 -39 -110 -138 -73 -210 87 -169 331 -87 300 101 -8
50 -34 83 -86 110 -56 28 -86 28 -141 -1z m143 -35 c84 -49 73 -178 -18 -222
-38 -19 -48 -20 -81 -10 -93 30 -129 117 -80 191 44 66 110 81 179 41z"/>
<path d="M393 1394 c-48 -24 -68 -64 -106 -210 -19 -71 -47 -175 -62 -231 -17
-61 -25 -112 -21 -127 8 -34 49 -60 81 -52 41 10 61 42 80 129 10 45 21 85 24
89 3 4 6 -175 6 -397 l0 -405 26 -26 c32 -31 90 -36 120 -8 18 16 20 16 39 -1
29 -27 88 -22 120 10 l25 25 0 405 c0 223 3 405 8 405 4 0 7 -8 7 -17 0 -41
35 -165 52 -183 41 -44 110 -30 124 26 8 31 -106 470 -134 518 -32 54 -71 66
-222 66 -103 0 -143 -4 -167 -16z m336 -40 c34 -28 46 -63 121 -347 23 -86 39
-166 35 -177 -8 -26 -43 -36 -63 -17 -8 9 -33 84 -56 168 -23 84 -47 154 -54
157 -9 3 -12 -95 -12 -460 0 -517 1 -508 -64 -508 -19 0 -39 6 -45 13 -7 9
-12 107 -13 293 -3 240 -5 279 -18 279 -13 0 -15 -39 -17 -278 -2 -195 -6
-283 -14 -293 -6 -8 -26 -14 -45 -14 -65 0 -64 -9 -64 508 0 351 -3 463 -12
460 -6 -2 -30 -72 -52 -155 -50 -185 -68 -211 -111 -163 -18 20 -17 27 45 258
57 211 68 241 96 270 l32 32 140 0 c136 0 141 -1 171 -26z"/>
<path d="M1475 1396 c-47 -20 -83 -70 -104 -144 -51 -176 -101 -374 -101 -402
0 -35 40 -80 72 -80 24 0 59 18 74 39 7 8 20 51 29 95 10 45 21 84 24 88 3 4
6 -173 6 -392 l0 -400 30 -30 c40 -39 92 -43 137 -10 27 20 32 21 40 7 11 -20
67 -36 102 -30 14 3 38 19 51 35 l26 30 -3 399 c-2 220 0 399 3 399 4 0 16
-43 28 -95 24 -102 48 -135 98 -135 28 0 83 50 83 75 0 16 -27 121 -91 360
-52 190 -74 205 -311 205 -113 -1 -172 -5 -193 -14z m409 -56 c32 -32 40 -54
96 -259 33 -123 58 -232 55 -242 -8 -24 -41 -42 -64 -34 -11 3 -24 18 -30 33
-9 25 -81 287 -81 297 0 3 -7 5 -15 5 -13 0 -15 -58 -15 -465 0 -452 -1 -466
-20 -485 -30 -30 -83 -27 -109 6 -20 26 -21 39 -21 295 0 232 -2 269 -15 269
-13 0 -15 -37 -15 -275 0 -262 -1 -276 -20 -295 -25 -25 -81 -26 -103 -2 -15
16 -17 68 -19 483 -3 546 -6 558 -72 310 -33 -122 -46 -157 -64 -169 -19 -13
-27 -13 -47 -2 -32 17 -32 35 1 158 93 353 97 362 147 393 29 18 47 19 204 17
l173 -3 34 -35z"/>
<path d="M2634 1391 c-40 -18 -73 -47 -100 -86 -7 -11 -38 -113 -68 -228 -58
-218 -59 -235 -19 -279 24 -26 78 -33 108 -14 13 9 26 16 28 16 2 0 2 -24 -1
-52 -6 -72 22 -303 53 -440 28 -124 52 -162 108 -171 38 -6 91 14 106 40 10
17 12 17 28 -4 42 -53 141 -46 174 12 38 65 89 366 89 528 l0 88 32 -17 c61
-32 138 16 138 86 0 12 -11 62 -25 113 -14 51 -35 128 -46 172 -32 122 -41
143 -73 182 -54 65 -86 73 -301 73 -164 0 -196 -3 -231 -19z m454 -32 c63 -31
85 -73 133 -254 69 -266 69 -261 23 -291 -20 -14 -29 -14 -53 -4 -33 13 -42
32 -71 150 -31 128 -51 181 -63 177 -15 -5 -14 -14 18 -127 32 -117 43 -299
26 -445 -20 -170 -59 -347 -83 -372 -28 -30 -83 -31 -115 -1 -23 21 -23 22
-23 295 0 236 -2 273 -15 273 -13 0 -15 -36 -15 -260 0 -312 -5 -330 -89 -330
-50 0 -68 23 -90 119 -40 175 -54 292 -54 446 0 137 3 160 31 268 35 131 36
137 22 137 -14 0 -27 -34 -64 -180 -27 -101 -37 -128 -59 -143 -50 -38 -112
12 -97 78 25 107 94 356 107 383 18 37 70 83 105 94 13 3 104 6 202 7 164 1
184 -1 224 -20z"/>
<path d="M3880 1390 c-95 -44 -111 -73 -174 -311 -50 -191 -54 -227 -30 -264
21 -32 83 -52 113 -36 20 11 21 10 21 -31 0 -80 45 -340 85 -493 19 -69 53
-111 98 -118 36 -5 85 12 106 37 12 15 16 14 38 -8 67 -67 169 -21 193 86 47
213 63 297 75 396 8 62 14 116 14 120 -3 19 2 23 16 12 38 -31 135 28 135 83
0 31 -89 366 -109 412 -20 45 -61 89 -106 113 -25 14 -66 17 -230 20 -185 2
-203 1 -245 -18z m448 -25 c85 -36 102 -69 167 -313 42 -158 47 -185 36 -206
-16 -30 -55 -48 -85 -40 -22 5 -24 14 -35 107 -18 151 -34 222 -51 222 -17 0
-17 -3 5 -110 23 -109 23 -321 0 -450 -34 -200 -75 -358 -97 -382 -28 -30 -83
-31 -115 -1 -23 21 -23 22 -23 295 0 236 -2 273 -15 273 -13 0 -15 -36 -15
-260 0 -312 -5 -330 -89 -330 -64 0 -75 26 -132 300 -29 139 -32 173 -33 330
0 130 5 194 17 248 21 89 21 92 3 92 -10 0 -19 -19 -26 -56 -17 -83 -30 -174
-30 -221 0 -32 -5 -45 -20 -53 -41 -22 -100 15 -100 61 0 42 86 357 111 406
20 40 43 60 99 90 39 20 378 18 428 -2z"/>
<path d="M5146 1395 c-46 -16 -91 -57 -116 -106 -11 -20 -42 -122 -70 -227
-48 -181 -50 -193 -36 -226 14 -34 58 -66 91 -66 11 0 15 -11 15 -42 0 -149
106 -502 169 -562 44 -42 124 -39 155 6 13 19 14 19 41 -6 36 -34 97 -38 141
-10 56 37 154 338 179 554 6 52 9 56 46 72 26 11 44 28 55 52 17 34 16 39 -6
123 -49 191 -83 309 -96 334 -20 40 -89 97 -131 108 -57 16 -389 13 -437 -4z
m449 -34 c81 -36 90 -57 170 -350 31 -112 35 -138 25 -161 -9 -22 -45 -50 -64
-50 -2 0 -6 37 -9 83 -6 83 -40 234 -56 250 -25 25 -26 -9 -3 -85 35 -116 36
-334 3 -482 -38 -166 -98 -334 -134 -373 -27 -30 -82 -31 -114 -1 -23 21 -23
23 -23 280 l0 258 25 6 c14 3 25 12 25 18 0 8 -23 12 -70 12 -73 0 -89 -11
-42 -28 l27 -10 -2 -247 c-2 -135 -3 -252 -3 -258 0 -26 -40 -53 -75 -53 -52
0 -75 29 -117 145 -54 146 -76 234 -94 370 -17 135 -8 267 26 378 18 59 18 77
0 77 -25 0 -77 -266 -63 -321 7 -26 -17 -25 -51 2 -37 29 -34 56 24 268 52
191 65 219 108 247 65 43 73 44 262 44 158 0 191 -3 225 -19z"/>
<path d="M1966 1373 c-6 -14 -5 -15 5 -6 7 7 10 15 7 18 -3 3 -9 -2 -12 -12z"/>
</g>
</svg>
